G04 #@! TF.GenerationSoftware,KiCad,Pcbnew,5.1.5+dfsg1-2build2*
G04 #@! TF.CreationDate,2022-03-22T13:14:10-03:00*
G04 #@! TF.ProjectId,Robot3WD,526f626f-7433-4574-942e-6b696361645f,rev?*
G04 #@! TF.SameCoordinates,Original*
G04 #@! TF.FileFunction,Copper,L1,Top*
G04 #@! TF.FilePolarity,Positive*
%FSLAX46Y46*%
G04 Gerber Fmt 4.6, Leading zero omitted, Abs format (unit mm)*
G04 Created by KiCad (PCBNEW 5.1.5+dfsg1-2build2) date 2022-03-22 13:14:10*
%MOMM*%
%LPD*%
G04 APERTURE LIST*
%ADD10R,3.200000X3.200000*%
%ADD11O,3.200000X3.200000*%
%ADD12R,1.600000X1.600000*%
%ADD13O,1.600000X1.600000*%
%ADD14R,3.000000X3.000000*%
%ADD15C,3.000000*%
%ADD16C,0.100000*%
%ADD17C,1.700000*%
%ADD18O,1.700000X1.700000*%
%ADD19R,1.700000X1.700000*%
%ADD20C,1.600000*%
%ADD21C,5.500000*%
G04 APERTURE END LIST*
D10*
X95000000Y-103500000D03*
D11*
X95000000Y-90800000D03*
D12*
X86000000Y-127000000D03*
D13*
X119020000Y-111760000D03*
X88540000Y-127000000D03*
X116480000Y-111760000D03*
X91080000Y-127000000D03*
X113940000Y-111760000D03*
X93620000Y-127000000D03*
X111400000Y-111760000D03*
X96160000Y-127000000D03*
X108860000Y-111760000D03*
X98700000Y-127000000D03*
X106320000Y-111760000D03*
X101240000Y-127000000D03*
X103780000Y-111760000D03*
X103780000Y-127000000D03*
X101240000Y-111760000D03*
X106320000Y-127000000D03*
X98700000Y-111760000D03*
X108860000Y-127000000D03*
X96160000Y-111760000D03*
X111400000Y-127000000D03*
X93620000Y-111760000D03*
X113940000Y-127000000D03*
X91080000Y-111760000D03*
X116480000Y-127000000D03*
X88540000Y-111760000D03*
X119020000Y-127000000D03*
X86000000Y-111760000D03*
X121560000Y-127000000D03*
X121560000Y-111760000D03*
D14*
X87000000Y-90500000D03*
D15*
X87000000Y-95580000D03*
G04 #@! TA.AperFunction,ComponentPad*
D16*
G36*
X55688878Y-136161122D02*
G01*
X54838878Y-134688878D01*
X56311122Y-133838878D01*
X57161122Y-135311122D01*
X55688878Y-136161122D01*
G37*
G04 #@! TD.AperFunction*
D17*
X57270000Y-137199705D02*
X57270000Y-137199705D01*
X58540000Y-139399409D02*
X58540000Y-139399409D01*
X59810000Y-141599114D02*
X59810000Y-141599114D01*
D18*
X98880000Y-60500000D03*
X101420000Y-60500000D03*
X103960000Y-60500000D03*
D19*
X106500000Y-60500000D03*
G04 #@! TA.AperFunction,ComponentPad*
D16*
G36*
X147161122Y-142188878D02*
G01*
X146311122Y-143661122D01*
X144838878Y-142811122D01*
X145688878Y-141338878D01*
X147161122Y-142188878D01*
G37*
G04 #@! TD.AperFunction*
D17*
X147270000Y-140300295D02*
X147270000Y-140300295D01*
X148540000Y-138100591D02*
X148540000Y-138100591D01*
X149810000Y-135900886D02*
X149810000Y-135900886D01*
D19*
X121500000Y-136500000D03*
D18*
X118960000Y-136500000D03*
X116420000Y-136500000D03*
X113880000Y-136500000D03*
X111340000Y-136500000D03*
X108800000Y-136500000D03*
X106260000Y-136500000D03*
X103720000Y-136500000D03*
X101180000Y-136500000D03*
D19*
X88500000Y-137000000D03*
D18*
X85960000Y-137000000D03*
X83420000Y-137000000D03*
X80880000Y-137000000D03*
D20*
X76000000Y-141500000D03*
D13*
X76000000Y-131340000D03*
X90660000Y-131500000D03*
D20*
X80500000Y-131500000D03*
D14*
X94500000Y-69500000D03*
D15*
X94500000Y-74580000D03*
X94500000Y-79660000D03*
D21*
X102500000Y-52000000D03*
X50000000Y-143000000D03*
X155000000Y-143000000D03*
M02*
