M48
; DRILL file {KiCad 5.1.5+dfsg1-2build2} date Tue 22 Mar 2022 01:14:08 PM -03
; FORMAT={-:-/ absolute / inch / decimal}
; #@! TF.CreationDate,2022-03-22T13:14:08-03:00
; #@! TF.GenerationSoftware,Kicad,Pcbnew,5.1.5+dfsg1-2build2
; #@! TF.FileFunction,Plated,1,2,PTH
FMAT,2
INCH
T1C0.0315
T2C0.0394
T3C0.0598
T4C0.0630
T5C0.1969
%
G90
G05
T1
X2.9921Y-5.1709
X2.9921Y-5.5709
X3.1693Y-5.1772
X3.5693Y-5.1772
X3.3858Y-4.4
X3.3858Y-5.0
X3.4858Y-4.4
X3.4858Y-5.0
X3.5858Y-4.4
X3.5858Y-5.0
X3.6858Y-4.4
X3.6858Y-5.0
X3.7858Y-4.4
X3.7858Y-5.0
X3.8858Y-4.4
X3.8858Y-5.0
X3.9858Y-4.4
X3.9858Y-5.0
X4.0858Y-4.4
X4.0858Y-5.0
X4.1858Y-4.4
X4.1858Y-5.0
X4.2858Y-4.4
X4.2858Y-5.0
X4.3858Y-4.4
X4.3858Y-5.0
X4.4858Y-4.4
X4.4858Y-5.0
X4.5858Y-4.4
X4.5858Y-5.0
X4.6858Y-4.4
X4.6858Y-5.0
X4.7858Y-4.4
X4.7858Y-5.0
T2
X5.748Y-5.6102
X5.798Y-5.5236
X5.848Y-5.437
X5.898Y-5.3504
X3.8929Y-2.3819
X3.9929Y-2.3819
X4.0929Y-2.3819
X4.1929Y-2.3819
X3.1843Y-5.3937
X3.2843Y-5.3937
X3.3843Y-5.3937
X3.4843Y-5.3937
X2.2047Y-5.315
X2.2547Y-5.4016
X2.3047Y-5.4882
X2.3547Y-5.5748
X3.9835Y-5.374
X4.0835Y-5.374
X4.1835Y-5.374
X4.2835Y-5.374
X4.3835Y-5.374
X4.4835Y-5.374
X4.5835Y-5.374
X4.6835Y-5.374
X4.7835Y-5.374
T3
X3.7205Y-2.7362
X3.7205Y-2.9362
X3.7205Y-3.1362
X3.4252Y-3.563
X3.4252Y-3.763
T4
X3.7402Y-3.5748
X3.7402Y-4.0748
T5
X1.9685Y-5.6299
X4.0354Y-2.0472
X6.1024Y-5.6299
T0
M30
