G04 #@! TF.GenerationSoftware,KiCad,Pcbnew,5.1.5+dfsg1-2build2*
G04 #@! TF.CreationDate,2022-03-22T13:14:10-03:00*
G04 #@! TF.ProjectId,Robot3WD,526f626f-7433-4574-942e-6b696361645f,rev?*
G04 #@! TF.SameCoordinates,Original*
G04 #@! TF.FileFunction,Copper,L2,Bot*
G04 #@! TF.FilePolarity,Positive*
%FSLAX46Y46*%
G04 Gerber Fmt 4.6, Leading zero omitted, Abs format (unit mm)*
G04 Created by KiCad (PCBNEW 5.1.5+dfsg1-2build2) date 2022-03-22 13:14:10*
%MOMM*%
%LPD*%
G04 APERTURE LIST*
%ADD10R,3.200000X3.200000*%
%ADD11O,3.200000X3.200000*%
%ADD12R,1.600000X1.600000*%
%ADD13O,1.600000X1.600000*%
%ADD14R,3.000000X3.000000*%
%ADD15C,3.000000*%
%ADD16C,0.100000*%
%ADD17C,1.700000*%
%ADD18O,1.700000X1.700000*%
%ADD19R,1.700000X1.700000*%
%ADD20C,1.600000*%
%ADD21C,5.500000*%
%ADD22C,0.500000*%
G04 APERTURE END LIST*
D10*
X95000000Y-103500000D03*
D11*
X95000000Y-90800000D03*
D12*
X86000000Y-127000000D03*
D13*
X119020000Y-111760000D03*
X88540000Y-127000000D03*
X116480000Y-111760000D03*
X91080000Y-127000000D03*
X113940000Y-111760000D03*
X93620000Y-127000000D03*
X111400000Y-111760000D03*
X96160000Y-127000000D03*
X108860000Y-111760000D03*
X98700000Y-127000000D03*
X106320000Y-111760000D03*
X101240000Y-127000000D03*
X103780000Y-111760000D03*
X103780000Y-127000000D03*
X101240000Y-111760000D03*
X106320000Y-127000000D03*
X98700000Y-111760000D03*
X108860000Y-127000000D03*
X96160000Y-111760000D03*
X111400000Y-127000000D03*
X93620000Y-111760000D03*
X113940000Y-127000000D03*
X91080000Y-111760000D03*
X116480000Y-127000000D03*
X88540000Y-111760000D03*
X119020000Y-127000000D03*
X86000000Y-111760000D03*
X121560000Y-127000000D03*
X121560000Y-111760000D03*
D14*
X87000000Y-90500000D03*
D15*
X87000000Y-95580000D03*
G04 #@! TA.AperFunction,ComponentPad*
D16*
G36*
X55688878Y-136161122D02*
G01*
X54838878Y-134688878D01*
X56311122Y-133838878D01*
X57161122Y-135311122D01*
X55688878Y-136161122D01*
G37*
G04 #@! TD.AperFunction*
D17*
X57270000Y-137199705D02*
X57270000Y-137199705D01*
X58540000Y-139399409D02*
X58540000Y-139399409D01*
X59810000Y-141599114D02*
X59810000Y-141599114D01*
D18*
X98880000Y-60500000D03*
X101420000Y-60500000D03*
X103960000Y-60500000D03*
D19*
X106500000Y-60500000D03*
G04 #@! TA.AperFunction,ComponentPad*
D16*
G36*
X147161122Y-142188878D02*
G01*
X146311122Y-143661122D01*
X144838878Y-142811122D01*
X145688878Y-141338878D01*
X147161122Y-142188878D01*
G37*
G04 #@! TD.AperFunction*
D17*
X147270000Y-140300295D02*
X147270000Y-140300295D01*
X148540000Y-138100591D02*
X148540000Y-138100591D01*
X149810000Y-135900886D02*
X149810000Y-135900886D01*
D19*
X121500000Y-136500000D03*
D18*
X118960000Y-136500000D03*
X116420000Y-136500000D03*
X113880000Y-136500000D03*
X111340000Y-136500000D03*
X108800000Y-136500000D03*
X106260000Y-136500000D03*
X103720000Y-136500000D03*
X101180000Y-136500000D03*
D19*
X88500000Y-137000000D03*
D18*
X85960000Y-137000000D03*
X83420000Y-137000000D03*
X80880000Y-137000000D03*
D20*
X76000000Y-141500000D03*
D13*
X76000000Y-131340000D03*
X90660000Y-131500000D03*
D20*
X80500000Y-131500000D03*
D14*
X94500000Y-69500000D03*
D15*
X94500000Y-74580000D03*
X94500000Y-79660000D03*
D21*
X102500000Y-52000000D03*
X50000000Y-143000000D03*
X155000000Y-143000000D03*
D22*
X86000000Y-105770000D02*
X86000000Y-111760000D01*
X98044000Y-93726000D02*
X86000000Y-105770000D01*
X98044000Y-83204000D02*
X98044000Y-93726000D01*
X94500000Y-79660000D02*
X98044000Y-83204000D01*
X87000000Y-90500000D02*
X94700000Y-90500000D01*
X94700000Y-90500000D02*
X95000000Y-90800000D01*
X83000000Y-91580000D02*
X87000000Y-95580000D01*
X83000000Y-86080000D02*
X83000000Y-91580000D01*
X83000000Y-86080000D02*
X94500000Y-74580000D01*
X94500000Y-74580000D02*
X92000000Y-72080000D01*
X92000000Y-67380000D02*
X98880000Y-60500000D01*
X92000000Y-72080000D02*
X92000000Y-67380000D01*
X148000000Y-145500000D02*
X151000000Y-142500000D01*
X151000000Y-137090886D02*
X149810000Y-135900886D01*
X151000000Y-142500000D02*
X151000000Y-137090886D01*
X88540000Y-112891370D02*
X87431370Y-114000000D01*
X88540000Y-111760000D02*
X88540000Y-112891370D01*
X87431370Y-114000000D02*
X85000000Y-114000000D01*
X85000000Y-114000000D02*
X84000000Y-113000000D01*
X84000000Y-98580000D02*
X87000000Y-95580000D01*
X84000000Y-113000000D02*
X84000000Y-98580000D01*
X85960000Y-137000000D02*
X85960000Y-133040000D01*
X87500000Y-131500000D02*
X90660000Y-131500000D01*
X85960000Y-133040000D02*
X87500000Y-131500000D01*
X90660000Y-131500000D02*
X92500000Y-131500000D01*
X93620000Y-130380000D02*
X93620000Y-127000000D01*
X92500000Y-131500000D02*
X93620000Y-130380000D01*
X93620000Y-127000000D02*
X93620000Y-125620000D01*
X93620000Y-125620000D02*
X92500000Y-124500000D01*
X76909114Y-124500000D02*
X59810000Y-141599114D01*
X92500000Y-124500000D02*
X76909114Y-124500000D01*
X104660000Y-145500000D02*
X90660000Y-131500000D01*
X148000000Y-145500000D02*
X104660000Y-145500000D01*
X56000000Y-134018505D02*
X65500000Y-124518505D01*
X56000000Y-135000000D02*
X56000000Y-134018505D01*
X65500000Y-115000000D02*
X81500000Y-99000000D01*
X65500000Y-124518505D02*
X65500000Y-115000000D01*
X140000000Y-142500000D02*
X146000000Y-142500000D01*
X121500000Y-124000000D02*
X140000000Y-142500000D01*
X116709998Y-124000000D02*
X121500000Y-124000000D01*
X105030001Y-112320003D02*
X116709998Y-124000000D01*
X105030001Y-111159999D02*
X105030001Y-112320003D01*
X95380000Y-110000000D02*
X103870002Y-110000000D01*
X103870002Y-110000000D02*
X105030001Y-111159999D01*
X93620000Y-111760000D02*
X95380000Y-110000000D01*
X65500000Y-124518505D02*
X65500000Y-124500000D01*
X55018505Y-135000000D02*
X54000000Y-136018505D01*
X56000000Y-135000000D02*
X55018505Y-135000000D01*
X54000000Y-136018505D02*
X54000000Y-140500000D01*
X54000000Y-140500000D02*
X58000000Y-144500000D01*
X73000000Y-144500000D02*
X76000000Y-141500000D01*
X58000000Y-144500000D02*
X73000000Y-144500000D01*
X88500000Y-138350000D02*
X88500000Y-137000000D01*
X85350000Y-141500000D02*
X88500000Y-138350000D01*
X76000000Y-141500000D02*
X85350000Y-141500000D01*
X93620000Y-111760000D02*
X89880000Y-115500000D01*
X89880000Y-115500000D02*
X84000000Y-115500000D01*
X81500000Y-113000000D02*
X81500000Y-99000000D01*
X84000000Y-115500000D02*
X81500000Y-113000000D01*
X81500000Y-85500000D02*
X81500000Y-99000000D01*
X90500000Y-76500000D02*
X81500000Y-85500000D01*
X90500000Y-66500000D02*
X90500000Y-76500000D01*
X98500000Y-58500000D02*
X90500000Y-66500000D01*
X106500000Y-59150000D02*
X105850000Y-58500000D01*
X105850000Y-58500000D02*
X98500000Y-58500000D01*
X106500000Y-60500000D02*
X106500000Y-59150000D01*
X58119999Y-136349706D02*
X58650294Y-136349706D01*
X57270000Y-137199705D02*
X58119999Y-136349706D01*
X58650294Y-136349706D02*
X75000000Y-120000000D01*
X93000000Y-120000000D02*
X101240000Y-111760000D01*
X75000000Y-120000000D02*
X93000000Y-120000000D01*
X58540000Y-139399409D02*
X75439409Y-122500000D01*
X93040000Y-122500000D02*
X103780000Y-111760000D01*
X75439409Y-122500000D02*
X93040000Y-122500000D01*
X101420000Y-60500000D02*
X101420000Y-94420000D01*
X106320000Y-99320000D02*
X106320000Y-111760000D01*
X101420000Y-94420000D02*
X106320000Y-99320000D01*
X103960000Y-60500000D02*
X103960000Y-93460000D01*
X108860000Y-98360000D02*
X108860000Y-111760000D01*
X103960000Y-93460000D02*
X108860000Y-98360000D01*
X111400000Y-111760000D02*
X134140000Y-134500000D01*
X141469705Y-134500000D02*
X147270000Y-140300295D01*
X134140000Y-134500000D02*
X141469705Y-134500000D01*
X148540000Y-138100591D02*
X142939409Y-132500000D01*
X134680000Y-132500000D02*
X113940000Y-111760000D01*
X142939409Y-132500000D02*
X134680000Y-132500000D01*
X80340000Y-131340000D02*
X80500000Y-131500000D01*
X76000000Y-131340000D02*
X80340000Y-131340000D01*
X80880000Y-131880000D02*
X80500000Y-131500000D01*
X80880000Y-137000000D02*
X80880000Y-131880000D01*
X85000000Y-127000000D02*
X86000000Y-127000000D01*
X80500000Y-131500000D02*
X85000000Y-127000000D01*
X83420000Y-132120000D02*
X85540000Y-130000000D01*
X83420000Y-137000000D02*
X83420000Y-132120000D01*
X85540000Y-130000000D02*
X87000000Y-130000000D01*
X88540000Y-128460000D02*
X88540000Y-127000000D01*
X87000000Y-130000000D02*
X88540000Y-128460000D01*
X121560000Y-136440000D02*
X121500000Y-136500000D01*
X121560000Y-127000000D02*
X121560000Y-136440000D01*
X119020000Y-136440000D02*
X118960000Y-136500000D01*
X119020000Y-127000000D02*
X119020000Y-136440000D01*
X116480000Y-136440000D02*
X116420000Y-136500000D01*
X116480000Y-127000000D02*
X116480000Y-136440000D01*
X113940000Y-136440000D02*
X113880000Y-136500000D01*
X113940000Y-127000000D02*
X113940000Y-136440000D01*
X111400000Y-136440000D02*
X111340000Y-136500000D01*
X111400000Y-127000000D02*
X111400000Y-136440000D01*
X108860000Y-136440000D02*
X108800000Y-136500000D01*
X108860000Y-127000000D02*
X108860000Y-136440000D01*
X106320000Y-136440000D02*
X106260000Y-136500000D01*
X106320000Y-127000000D02*
X106320000Y-136440000D01*
X103780000Y-136440000D02*
X103720000Y-136500000D01*
X103780000Y-127000000D02*
X103780000Y-136440000D01*
X101240000Y-136440000D02*
X101180000Y-136500000D01*
X101240000Y-127000000D02*
X101240000Y-136440000D01*
X99568000Y-72568000D02*
X99568000Y-101032000D01*
X96500000Y-69500000D02*
X99568000Y-72568000D01*
X94500000Y-69500000D02*
X96500000Y-69500000D01*
X97100000Y-103500000D02*
X95000000Y-103500000D01*
X99568000Y-101032000D02*
X97100000Y-103500000D01*
M02*
