G04 #@! TF.GenerationSoftware,KiCad,Pcbnew,5.1.5+dfsg1-2build2*
G04 #@! TF.CreationDate,2022-03-22T13:14:10-03:00*
G04 #@! TF.ProjectId,Robot3WD,526f626f-7433-4574-942e-6b696361645f,rev?*
G04 #@! TF.SameCoordinates,Original*
G04 #@! TF.FileFunction,Soldermask,Bot*
G04 #@! TF.FilePolarity,Negative*
%FSLAX46Y46*%
G04 Gerber Fmt 4.6, Leading zero omitted, Abs format (unit mm)*
G04 Created by KiCad (PCBNEW 5.1.5+dfsg1-2build2) date 2022-03-22 13:14:10*
%MOMM*%
%LPD*%
G04 APERTURE LIST*
%ADD10C,0.100000*%
G04 APERTURE END LIST*
D10*
G36*
X147230790Y-142170211D02*
G01*
X146329789Y-143730790D01*
X144769210Y-142829789D01*
X145670211Y-141269210D01*
X147230790Y-142170211D01*
G37*
G36*
X59923512Y-140703041D02*
G01*
X60072812Y-140732738D01*
X60236784Y-140800658D01*
X60384354Y-140899261D01*
X60509853Y-141024760D01*
X60608456Y-141172330D01*
X60676376Y-141336302D01*
X60711000Y-141510373D01*
X60711000Y-141687855D01*
X60676376Y-141861926D01*
X60608456Y-142025898D01*
X60509853Y-142173468D01*
X60384354Y-142298967D01*
X60236784Y-142397570D01*
X60072812Y-142465490D01*
X59923512Y-142495187D01*
X59898742Y-142500114D01*
X59721258Y-142500114D01*
X59696488Y-142495187D01*
X59547188Y-142465490D01*
X59383216Y-142397570D01*
X59235646Y-142298967D01*
X59110147Y-142173468D01*
X59011544Y-142025898D01*
X58943624Y-141861926D01*
X58909000Y-141687855D01*
X58909000Y-141510373D01*
X58943624Y-141336302D01*
X59011544Y-141172330D01*
X59110147Y-141024760D01*
X59235646Y-140899261D01*
X59383216Y-140800658D01*
X59547188Y-140732738D01*
X59696488Y-140703041D01*
X59721258Y-140698114D01*
X59898742Y-140698114D01*
X59923512Y-140703041D01*
G37*
G36*
X76248228Y-140681703D02*
G01*
X76403100Y-140745853D01*
X76542481Y-140838985D01*
X76661015Y-140957519D01*
X76754147Y-141096900D01*
X76818297Y-141251772D01*
X76851000Y-141416184D01*
X76851000Y-141583816D01*
X76818297Y-141748228D01*
X76754147Y-141903100D01*
X76661015Y-142042481D01*
X76542481Y-142161015D01*
X76403100Y-142254147D01*
X76248228Y-142318297D01*
X76083816Y-142351000D01*
X75916184Y-142351000D01*
X75751772Y-142318297D01*
X75596900Y-142254147D01*
X75457519Y-142161015D01*
X75338985Y-142042481D01*
X75245853Y-141903100D01*
X75181703Y-141748228D01*
X75149000Y-141583816D01*
X75149000Y-141416184D01*
X75181703Y-141251772D01*
X75245853Y-141096900D01*
X75338985Y-140957519D01*
X75457519Y-140838985D01*
X75596900Y-140745853D01*
X75751772Y-140681703D01*
X75916184Y-140649000D01*
X76083816Y-140649000D01*
X76248228Y-140681703D01*
G37*
G36*
X147383512Y-139404222D02*
G01*
X147532812Y-139433919D01*
X147696784Y-139501839D01*
X147844354Y-139600442D01*
X147969853Y-139725941D01*
X148068456Y-139873511D01*
X148136376Y-140037483D01*
X148171000Y-140211554D01*
X148171000Y-140389036D01*
X148136376Y-140563107D01*
X148068456Y-140727079D01*
X147969853Y-140874649D01*
X147844354Y-141000148D01*
X147696784Y-141098751D01*
X147532812Y-141166671D01*
X147383512Y-141196368D01*
X147358742Y-141201295D01*
X147181258Y-141201295D01*
X147156488Y-141196368D01*
X147007188Y-141166671D01*
X146843216Y-141098751D01*
X146695646Y-141000148D01*
X146570147Y-140874649D01*
X146471544Y-140727079D01*
X146403624Y-140563107D01*
X146369000Y-140389036D01*
X146369000Y-140211554D01*
X146403624Y-140037483D01*
X146471544Y-139873511D01*
X146570147Y-139725941D01*
X146695646Y-139600442D01*
X146843216Y-139501839D01*
X147007188Y-139433919D01*
X147156488Y-139404222D01*
X147181258Y-139399295D01*
X147358742Y-139399295D01*
X147383512Y-139404222D01*
G37*
G36*
X58653512Y-138503336D02*
G01*
X58802812Y-138533033D01*
X58966784Y-138600953D01*
X59114354Y-138699556D01*
X59239853Y-138825055D01*
X59338456Y-138972625D01*
X59406376Y-139136597D01*
X59441000Y-139310668D01*
X59441000Y-139488150D01*
X59406376Y-139662221D01*
X59338456Y-139826193D01*
X59239853Y-139973763D01*
X59114354Y-140099262D01*
X58966784Y-140197865D01*
X58802812Y-140265785D01*
X58653512Y-140295482D01*
X58628742Y-140300409D01*
X58451258Y-140300409D01*
X58426488Y-140295482D01*
X58277188Y-140265785D01*
X58113216Y-140197865D01*
X57965646Y-140099262D01*
X57840147Y-139973763D01*
X57741544Y-139826193D01*
X57673624Y-139662221D01*
X57639000Y-139488150D01*
X57639000Y-139310668D01*
X57673624Y-139136597D01*
X57741544Y-138972625D01*
X57840147Y-138825055D01*
X57965646Y-138699556D01*
X58113216Y-138600953D01*
X58277188Y-138533033D01*
X58426488Y-138503336D01*
X58451258Y-138498409D01*
X58628742Y-138498409D01*
X58653512Y-138503336D01*
G37*
G36*
X148653512Y-137204518D02*
G01*
X148802812Y-137234215D01*
X148966784Y-137302135D01*
X149114354Y-137400738D01*
X149239853Y-137526237D01*
X149338456Y-137673807D01*
X149406376Y-137837779D01*
X149441000Y-138011850D01*
X149441000Y-138189332D01*
X149406376Y-138363403D01*
X149338456Y-138527375D01*
X149239853Y-138674945D01*
X149114354Y-138800444D01*
X148966784Y-138899047D01*
X148802812Y-138966967D01*
X148653512Y-138996664D01*
X148628742Y-139001591D01*
X148451258Y-139001591D01*
X148426488Y-138996664D01*
X148277188Y-138966967D01*
X148113216Y-138899047D01*
X147965646Y-138800444D01*
X147840147Y-138674945D01*
X147741544Y-138527375D01*
X147673624Y-138363403D01*
X147639000Y-138189332D01*
X147639000Y-138011850D01*
X147673624Y-137837779D01*
X147741544Y-137673807D01*
X147840147Y-137526237D01*
X147965646Y-137400738D01*
X148113216Y-137302135D01*
X148277188Y-137234215D01*
X148426488Y-137204518D01*
X148451258Y-137199591D01*
X148628742Y-137199591D01*
X148653512Y-137204518D01*
G37*
G36*
X57365991Y-136300147D02*
G01*
X57532812Y-136333329D01*
X57696784Y-136401249D01*
X57844354Y-136499852D01*
X57969853Y-136625351D01*
X58068456Y-136772921D01*
X58136376Y-136936893D01*
X58171000Y-137110964D01*
X58171000Y-137288446D01*
X58136376Y-137462517D01*
X58068456Y-137626489D01*
X57969853Y-137774059D01*
X57844354Y-137899558D01*
X57696784Y-137998161D01*
X57532812Y-138066081D01*
X57383512Y-138095778D01*
X57358742Y-138100705D01*
X57181258Y-138100705D01*
X57156488Y-138095778D01*
X57007188Y-138066081D01*
X56843216Y-137998161D01*
X56695646Y-137899558D01*
X56570147Y-137774059D01*
X56471544Y-137626489D01*
X56403624Y-137462517D01*
X56369000Y-137288446D01*
X56369000Y-137110964D01*
X56403624Y-136936893D01*
X56471544Y-136772921D01*
X56570147Y-136625351D01*
X56695646Y-136499852D01*
X56843216Y-136401249D01*
X57007188Y-136333329D01*
X57174009Y-136300147D01*
X57181258Y-136298705D01*
X57358742Y-136298705D01*
X57365991Y-136300147D01*
G37*
G36*
X80993512Y-136103927D02*
G01*
X81142812Y-136133624D01*
X81306784Y-136201544D01*
X81454354Y-136300147D01*
X81579853Y-136425646D01*
X81678456Y-136573216D01*
X81746376Y-136737188D01*
X81781000Y-136911259D01*
X81781000Y-137088741D01*
X81746376Y-137262812D01*
X81678456Y-137426784D01*
X81579853Y-137574354D01*
X81454354Y-137699853D01*
X81306784Y-137798456D01*
X81142812Y-137866376D01*
X80993512Y-137896073D01*
X80968742Y-137901000D01*
X80791258Y-137901000D01*
X80766488Y-137896073D01*
X80617188Y-137866376D01*
X80453216Y-137798456D01*
X80305646Y-137699853D01*
X80180147Y-137574354D01*
X80081544Y-137426784D01*
X80013624Y-137262812D01*
X79979000Y-137088741D01*
X79979000Y-136911259D01*
X80013624Y-136737188D01*
X80081544Y-136573216D01*
X80180147Y-136425646D01*
X80305646Y-136300147D01*
X80453216Y-136201544D01*
X80617188Y-136133624D01*
X80766488Y-136103927D01*
X80791258Y-136099000D01*
X80968742Y-136099000D01*
X80993512Y-136103927D01*
G37*
G36*
X83533512Y-136103927D02*
G01*
X83682812Y-136133624D01*
X83846784Y-136201544D01*
X83994354Y-136300147D01*
X84119853Y-136425646D01*
X84218456Y-136573216D01*
X84286376Y-136737188D01*
X84321000Y-136911259D01*
X84321000Y-137088741D01*
X84286376Y-137262812D01*
X84218456Y-137426784D01*
X84119853Y-137574354D01*
X83994354Y-137699853D01*
X83846784Y-137798456D01*
X83682812Y-137866376D01*
X83533512Y-137896073D01*
X83508742Y-137901000D01*
X83331258Y-137901000D01*
X83306488Y-137896073D01*
X83157188Y-137866376D01*
X82993216Y-137798456D01*
X82845646Y-137699853D01*
X82720147Y-137574354D01*
X82621544Y-137426784D01*
X82553624Y-137262812D01*
X82519000Y-137088741D01*
X82519000Y-136911259D01*
X82553624Y-136737188D01*
X82621544Y-136573216D01*
X82720147Y-136425646D01*
X82845646Y-136300147D01*
X82993216Y-136201544D01*
X83157188Y-136133624D01*
X83306488Y-136103927D01*
X83331258Y-136099000D01*
X83508742Y-136099000D01*
X83533512Y-136103927D01*
G37*
G36*
X86073512Y-136103927D02*
G01*
X86222812Y-136133624D01*
X86386784Y-136201544D01*
X86534354Y-136300147D01*
X86659853Y-136425646D01*
X86758456Y-136573216D01*
X86826376Y-136737188D01*
X86861000Y-136911259D01*
X86861000Y-137088741D01*
X86826376Y-137262812D01*
X86758456Y-137426784D01*
X86659853Y-137574354D01*
X86534354Y-137699853D01*
X86386784Y-137798456D01*
X86222812Y-137866376D01*
X86073512Y-137896073D01*
X86048742Y-137901000D01*
X85871258Y-137901000D01*
X85846488Y-137896073D01*
X85697188Y-137866376D01*
X85533216Y-137798456D01*
X85385646Y-137699853D01*
X85260147Y-137574354D01*
X85161544Y-137426784D01*
X85093624Y-137262812D01*
X85059000Y-137088741D01*
X85059000Y-136911259D01*
X85093624Y-136737188D01*
X85161544Y-136573216D01*
X85260147Y-136425646D01*
X85385646Y-136300147D01*
X85533216Y-136201544D01*
X85697188Y-136133624D01*
X85846488Y-136103927D01*
X85871258Y-136099000D01*
X86048742Y-136099000D01*
X86073512Y-136103927D01*
G37*
G36*
X89401000Y-137901000D02*
G01*
X87599000Y-137901000D01*
X87599000Y-136099000D01*
X89401000Y-136099000D01*
X89401000Y-137901000D01*
G37*
G36*
X116533512Y-135603927D02*
G01*
X116682812Y-135633624D01*
X116846784Y-135701544D01*
X116994354Y-135800147D01*
X117119853Y-135925646D01*
X117218456Y-136073216D01*
X117286376Y-136237188D01*
X117321000Y-136411259D01*
X117321000Y-136588741D01*
X117286376Y-136762812D01*
X117218456Y-136926784D01*
X117119853Y-137074354D01*
X116994354Y-137199853D01*
X116846784Y-137298456D01*
X116682812Y-137366376D01*
X116533512Y-137396073D01*
X116508742Y-137401000D01*
X116331258Y-137401000D01*
X116306488Y-137396073D01*
X116157188Y-137366376D01*
X115993216Y-137298456D01*
X115845646Y-137199853D01*
X115720147Y-137074354D01*
X115621544Y-136926784D01*
X115553624Y-136762812D01*
X115519000Y-136588741D01*
X115519000Y-136411259D01*
X115553624Y-136237188D01*
X115621544Y-136073216D01*
X115720147Y-135925646D01*
X115845646Y-135800147D01*
X115993216Y-135701544D01*
X116157188Y-135633624D01*
X116306488Y-135603927D01*
X116331258Y-135599000D01*
X116508742Y-135599000D01*
X116533512Y-135603927D01*
G37*
G36*
X122401000Y-137401000D02*
G01*
X120599000Y-137401000D01*
X120599000Y-135599000D01*
X122401000Y-135599000D01*
X122401000Y-137401000D01*
G37*
G36*
X119073512Y-135603927D02*
G01*
X119222812Y-135633624D01*
X119386784Y-135701544D01*
X119534354Y-135800147D01*
X119659853Y-135925646D01*
X119758456Y-136073216D01*
X119826376Y-136237188D01*
X119861000Y-136411259D01*
X119861000Y-136588741D01*
X119826376Y-136762812D01*
X119758456Y-136926784D01*
X119659853Y-137074354D01*
X119534354Y-137199853D01*
X119386784Y-137298456D01*
X119222812Y-137366376D01*
X119073512Y-137396073D01*
X119048742Y-137401000D01*
X118871258Y-137401000D01*
X118846488Y-137396073D01*
X118697188Y-137366376D01*
X118533216Y-137298456D01*
X118385646Y-137199853D01*
X118260147Y-137074354D01*
X118161544Y-136926784D01*
X118093624Y-136762812D01*
X118059000Y-136588741D01*
X118059000Y-136411259D01*
X118093624Y-136237188D01*
X118161544Y-136073216D01*
X118260147Y-135925646D01*
X118385646Y-135800147D01*
X118533216Y-135701544D01*
X118697188Y-135633624D01*
X118846488Y-135603927D01*
X118871258Y-135599000D01*
X119048742Y-135599000D01*
X119073512Y-135603927D01*
G37*
G36*
X101293512Y-135603927D02*
G01*
X101442812Y-135633624D01*
X101606784Y-135701544D01*
X101754354Y-135800147D01*
X101879853Y-135925646D01*
X101978456Y-136073216D01*
X102046376Y-136237188D01*
X102081000Y-136411259D01*
X102081000Y-136588741D01*
X102046376Y-136762812D01*
X101978456Y-136926784D01*
X101879853Y-137074354D01*
X101754354Y-137199853D01*
X101606784Y-137298456D01*
X101442812Y-137366376D01*
X101293512Y-137396073D01*
X101268742Y-137401000D01*
X101091258Y-137401000D01*
X101066488Y-137396073D01*
X100917188Y-137366376D01*
X100753216Y-137298456D01*
X100605646Y-137199853D01*
X100480147Y-137074354D01*
X100381544Y-136926784D01*
X100313624Y-136762812D01*
X100279000Y-136588741D01*
X100279000Y-136411259D01*
X100313624Y-136237188D01*
X100381544Y-136073216D01*
X100480147Y-135925646D01*
X100605646Y-135800147D01*
X100753216Y-135701544D01*
X100917188Y-135633624D01*
X101066488Y-135603927D01*
X101091258Y-135599000D01*
X101268742Y-135599000D01*
X101293512Y-135603927D01*
G37*
G36*
X106373512Y-135603927D02*
G01*
X106522812Y-135633624D01*
X106686784Y-135701544D01*
X106834354Y-135800147D01*
X106959853Y-135925646D01*
X107058456Y-136073216D01*
X107126376Y-136237188D01*
X107161000Y-136411259D01*
X107161000Y-136588741D01*
X107126376Y-136762812D01*
X107058456Y-136926784D01*
X106959853Y-137074354D01*
X106834354Y-137199853D01*
X106686784Y-137298456D01*
X106522812Y-137366376D01*
X106373512Y-137396073D01*
X106348742Y-137401000D01*
X106171258Y-137401000D01*
X106146488Y-137396073D01*
X105997188Y-137366376D01*
X105833216Y-137298456D01*
X105685646Y-137199853D01*
X105560147Y-137074354D01*
X105461544Y-136926784D01*
X105393624Y-136762812D01*
X105359000Y-136588741D01*
X105359000Y-136411259D01*
X105393624Y-136237188D01*
X105461544Y-136073216D01*
X105560147Y-135925646D01*
X105685646Y-135800147D01*
X105833216Y-135701544D01*
X105997188Y-135633624D01*
X106146488Y-135603927D01*
X106171258Y-135599000D01*
X106348742Y-135599000D01*
X106373512Y-135603927D01*
G37*
G36*
X108913512Y-135603927D02*
G01*
X109062812Y-135633624D01*
X109226784Y-135701544D01*
X109374354Y-135800147D01*
X109499853Y-135925646D01*
X109598456Y-136073216D01*
X109666376Y-136237188D01*
X109701000Y-136411259D01*
X109701000Y-136588741D01*
X109666376Y-136762812D01*
X109598456Y-136926784D01*
X109499853Y-137074354D01*
X109374354Y-137199853D01*
X109226784Y-137298456D01*
X109062812Y-137366376D01*
X108913512Y-137396073D01*
X108888742Y-137401000D01*
X108711258Y-137401000D01*
X108686488Y-137396073D01*
X108537188Y-137366376D01*
X108373216Y-137298456D01*
X108225646Y-137199853D01*
X108100147Y-137074354D01*
X108001544Y-136926784D01*
X107933624Y-136762812D01*
X107899000Y-136588741D01*
X107899000Y-136411259D01*
X107933624Y-136237188D01*
X108001544Y-136073216D01*
X108100147Y-135925646D01*
X108225646Y-135800147D01*
X108373216Y-135701544D01*
X108537188Y-135633624D01*
X108686488Y-135603927D01*
X108711258Y-135599000D01*
X108888742Y-135599000D01*
X108913512Y-135603927D01*
G37*
G36*
X111453512Y-135603927D02*
G01*
X111602812Y-135633624D01*
X111766784Y-135701544D01*
X111914354Y-135800147D01*
X112039853Y-135925646D01*
X112138456Y-136073216D01*
X112206376Y-136237188D01*
X112241000Y-136411259D01*
X112241000Y-136588741D01*
X112206376Y-136762812D01*
X112138456Y-136926784D01*
X112039853Y-137074354D01*
X111914354Y-137199853D01*
X111766784Y-137298456D01*
X111602812Y-137366376D01*
X111453512Y-137396073D01*
X111428742Y-137401000D01*
X111251258Y-137401000D01*
X111226488Y-137396073D01*
X111077188Y-137366376D01*
X110913216Y-137298456D01*
X110765646Y-137199853D01*
X110640147Y-137074354D01*
X110541544Y-136926784D01*
X110473624Y-136762812D01*
X110439000Y-136588741D01*
X110439000Y-136411259D01*
X110473624Y-136237188D01*
X110541544Y-136073216D01*
X110640147Y-135925646D01*
X110765646Y-135800147D01*
X110913216Y-135701544D01*
X111077188Y-135633624D01*
X111226488Y-135603927D01*
X111251258Y-135599000D01*
X111428742Y-135599000D01*
X111453512Y-135603927D01*
G37*
G36*
X113993512Y-135603927D02*
G01*
X114142812Y-135633624D01*
X114306784Y-135701544D01*
X114454354Y-135800147D01*
X114579853Y-135925646D01*
X114678456Y-136073216D01*
X114746376Y-136237188D01*
X114781000Y-136411259D01*
X114781000Y-136588741D01*
X114746376Y-136762812D01*
X114678456Y-136926784D01*
X114579853Y-137074354D01*
X114454354Y-137199853D01*
X114306784Y-137298456D01*
X114142812Y-137366376D01*
X113993512Y-137396073D01*
X113968742Y-137401000D01*
X113791258Y-137401000D01*
X113766488Y-137396073D01*
X113617188Y-137366376D01*
X113453216Y-137298456D01*
X113305646Y-137199853D01*
X113180147Y-137074354D01*
X113081544Y-136926784D01*
X113013624Y-136762812D01*
X112979000Y-136588741D01*
X112979000Y-136411259D01*
X113013624Y-136237188D01*
X113081544Y-136073216D01*
X113180147Y-135925646D01*
X113305646Y-135800147D01*
X113453216Y-135701544D01*
X113617188Y-135633624D01*
X113766488Y-135603927D01*
X113791258Y-135599000D01*
X113968742Y-135599000D01*
X113993512Y-135603927D01*
G37*
G36*
X103833512Y-135603927D02*
G01*
X103982812Y-135633624D01*
X104146784Y-135701544D01*
X104294354Y-135800147D01*
X104419853Y-135925646D01*
X104518456Y-136073216D01*
X104586376Y-136237188D01*
X104621000Y-136411259D01*
X104621000Y-136588741D01*
X104586376Y-136762812D01*
X104518456Y-136926784D01*
X104419853Y-137074354D01*
X104294354Y-137199853D01*
X104146784Y-137298456D01*
X103982812Y-137366376D01*
X103833512Y-137396073D01*
X103808742Y-137401000D01*
X103631258Y-137401000D01*
X103606488Y-137396073D01*
X103457188Y-137366376D01*
X103293216Y-137298456D01*
X103145646Y-137199853D01*
X103020147Y-137074354D01*
X102921544Y-136926784D01*
X102853624Y-136762812D01*
X102819000Y-136588741D01*
X102819000Y-136411259D01*
X102853624Y-136237188D01*
X102921544Y-136073216D01*
X103020147Y-135925646D01*
X103145646Y-135800147D01*
X103293216Y-135701544D01*
X103457188Y-135633624D01*
X103606488Y-135603927D01*
X103631258Y-135599000D01*
X103808742Y-135599000D01*
X103833512Y-135603927D01*
G37*
G36*
X149923512Y-135004813D02*
G01*
X150072812Y-135034510D01*
X150236784Y-135102430D01*
X150384354Y-135201033D01*
X150509853Y-135326532D01*
X150608456Y-135474102D01*
X150676376Y-135638074D01*
X150711000Y-135812145D01*
X150711000Y-135989627D01*
X150676376Y-136163698D01*
X150608456Y-136327670D01*
X150509853Y-136475240D01*
X150384354Y-136600739D01*
X150236784Y-136699342D01*
X150072812Y-136767262D01*
X149923512Y-136796959D01*
X149898742Y-136801886D01*
X149721258Y-136801886D01*
X149696488Y-136796959D01*
X149547188Y-136767262D01*
X149383216Y-136699342D01*
X149235646Y-136600739D01*
X149110147Y-136475240D01*
X149011544Y-136327670D01*
X148943624Y-136163698D01*
X148909000Y-135989627D01*
X148909000Y-135812145D01*
X148943624Y-135638074D01*
X149011544Y-135474102D01*
X149110147Y-135326532D01*
X149235646Y-135201033D01*
X149383216Y-135102430D01*
X149547188Y-135034510D01*
X149696488Y-135004813D01*
X149721258Y-134999886D01*
X149898742Y-134999886D01*
X149923512Y-135004813D01*
G37*
G36*
X57230790Y-135329789D02*
G01*
X55670211Y-136230790D01*
X54769210Y-134670211D01*
X56329789Y-133769210D01*
X57230790Y-135329789D01*
G37*
G36*
X90908228Y-130681703D02*
G01*
X91063100Y-130745853D01*
X91202481Y-130838985D01*
X91321015Y-130957519D01*
X91414147Y-131096900D01*
X91478297Y-131251772D01*
X91511000Y-131416184D01*
X91511000Y-131583816D01*
X91478297Y-131748228D01*
X91414147Y-131903100D01*
X91321015Y-132042481D01*
X91202481Y-132161015D01*
X91063100Y-132254147D01*
X90908228Y-132318297D01*
X90743816Y-132351000D01*
X90576184Y-132351000D01*
X90411772Y-132318297D01*
X90256900Y-132254147D01*
X90117519Y-132161015D01*
X89998985Y-132042481D01*
X89905853Y-131903100D01*
X89841703Y-131748228D01*
X89809000Y-131583816D01*
X89809000Y-131416184D01*
X89841703Y-131251772D01*
X89905853Y-131096900D01*
X89998985Y-130957519D01*
X90117519Y-130838985D01*
X90256900Y-130745853D01*
X90411772Y-130681703D01*
X90576184Y-130649000D01*
X90743816Y-130649000D01*
X90908228Y-130681703D01*
G37*
G36*
X80748228Y-130681703D02*
G01*
X80903100Y-130745853D01*
X81042481Y-130838985D01*
X81161015Y-130957519D01*
X81254147Y-131096900D01*
X81318297Y-131251772D01*
X81351000Y-131416184D01*
X81351000Y-131583816D01*
X81318297Y-131748228D01*
X81254147Y-131903100D01*
X81161015Y-132042481D01*
X81042481Y-132161015D01*
X80903100Y-132254147D01*
X80748228Y-132318297D01*
X80583816Y-132351000D01*
X80416184Y-132351000D01*
X80251772Y-132318297D01*
X80096900Y-132254147D01*
X79957519Y-132161015D01*
X79838985Y-132042481D01*
X79745853Y-131903100D01*
X79681703Y-131748228D01*
X79649000Y-131583816D01*
X79649000Y-131416184D01*
X79681703Y-131251772D01*
X79745853Y-131096900D01*
X79838985Y-130957519D01*
X79957519Y-130838985D01*
X80096900Y-130745853D01*
X80251772Y-130681703D01*
X80416184Y-130649000D01*
X80583816Y-130649000D01*
X80748228Y-130681703D01*
G37*
G36*
X76248228Y-130521703D02*
G01*
X76403100Y-130585853D01*
X76542481Y-130678985D01*
X76661015Y-130797519D01*
X76754147Y-130936900D01*
X76818297Y-131091772D01*
X76851000Y-131256184D01*
X76851000Y-131423816D01*
X76818297Y-131588228D01*
X76754147Y-131743100D01*
X76661015Y-131882481D01*
X76542481Y-132001015D01*
X76403100Y-132094147D01*
X76248228Y-132158297D01*
X76083816Y-132191000D01*
X75916184Y-132191000D01*
X75751772Y-132158297D01*
X75596900Y-132094147D01*
X75457519Y-132001015D01*
X75338985Y-131882481D01*
X75245853Y-131743100D01*
X75181703Y-131588228D01*
X75149000Y-131423816D01*
X75149000Y-131256184D01*
X75181703Y-131091772D01*
X75245853Y-130936900D01*
X75338985Y-130797519D01*
X75457519Y-130678985D01*
X75596900Y-130585853D01*
X75751772Y-130521703D01*
X75916184Y-130489000D01*
X76083816Y-130489000D01*
X76248228Y-130521703D01*
G37*
G36*
X121808228Y-126181703D02*
G01*
X121963100Y-126245853D01*
X122102481Y-126338985D01*
X122221015Y-126457519D01*
X122314147Y-126596900D01*
X122378297Y-126751772D01*
X122411000Y-126916184D01*
X122411000Y-127083816D01*
X122378297Y-127248228D01*
X122314147Y-127403100D01*
X122221015Y-127542481D01*
X122102481Y-127661015D01*
X121963100Y-127754147D01*
X121808228Y-127818297D01*
X121643816Y-127851000D01*
X121476184Y-127851000D01*
X121311772Y-127818297D01*
X121156900Y-127754147D01*
X121017519Y-127661015D01*
X120898985Y-127542481D01*
X120805853Y-127403100D01*
X120741703Y-127248228D01*
X120709000Y-127083816D01*
X120709000Y-126916184D01*
X120741703Y-126751772D01*
X120805853Y-126596900D01*
X120898985Y-126457519D01*
X121017519Y-126338985D01*
X121156900Y-126245853D01*
X121311772Y-126181703D01*
X121476184Y-126149000D01*
X121643816Y-126149000D01*
X121808228Y-126181703D01*
G37*
G36*
X109108228Y-126181703D02*
G01*
X109263100Y-126245853D01*
X109402481Y-126338985D01*
X109521015Y-126457519D01*
X109614147Y-126596900D01*
X109678297Y-126751772D01*
X109711000Y-126916184D01*
X109711000Y-127083816D01*
X109678297Y-127248228D01*
X109614147Y-127403100D01*
X109521015Y-127542481D01*
X109402481Y-127661015D01*
X109263100Y-127754147D01*
X109108228Y-127818297D01*
X108943816Y-127851000D01*
X108776184Y-127851000D01*
X108611772Y-127818297D01*
X108456900Y-127754147D01*
X108317519Y-127661015D01*
X108198985Y-127542481D01*
X108105853Y-127403100D01*
X108041703Y-127248228D01*
X108009000Y-127083816D01*
X108009000Y-126916184D01*
X108041703Y-126751772D01*
X108105853Y-126596900D01*
X108198985Y-126457519D01*
X108317519Y-126338985D01*
X108456900Y-126245853D01*
X108611772Y-126181703D01*
X108776184Y-126149000D01*
X108943816Y-126149000D01*
X109108228Y-126181703D01*
G37*
G36*
X106568228Y-126181703D02*
G01*
X106723100Y-126245853D01*
X106862481Y-126338985D01*
X106981015Y-126457519D01*
X107074147Y-126596900D01*
X107138297Y-126751772D01*
X107171000Y-126916184D01*
X107171000Y-127083816D01*
X107138297Y-127248228D01*
X107074147Y-127403100D01*
X106981015Y-127542481D01*
X106862481Y-127661015D01*
X106723100Y-127754147D01*
X106568228Y-127818297D01*
X106403816Y-127851000D01*
X106236184Y-127851000D01*
X106071772Y-127818297D01*
X105916900Y-127754147D01*
X105777519Y-127661015D01*
X105658985Y-127542481D01*
X105565853Y-127403100D01*
X105501703Y-127248228D01*
X105469000Y-127083816D01*
X105469000Y-126916184D01*
X105501703Y-126751772D01*
X105565853Y-126596900D01*
X105658985Y-126457519D01*
X105777519Y-126338985D01*
X105916900Y-126245853D01*
X106071772Y-126181703D01*
X106236184Y-126149000D01*
X106403816Y-126149000D01*
X106568228Y-126181703D01*
G37*
G36*
X86851000Y-127851000D02*
G01*
X85149000Y-127851000D01*
X85149000Y-126149000D01*
X86851000Y-126149000D01*
X86851000Y-127851000D01*
G37*
G36*
X119268228Y-126181703D02*
G01*
X119423100Y-126245853D01*
X119562481Y-126338985D01*
X119681015Y-126457519D01*
X119774147Y-126596900D01*
X119838297Y-126751772D01*
X119871000Y-126916184D01*
X119871000Y-127083816D01*
X119838297Y-127248228D01*
X119774147Y-127403100D01*
X119681015Y-127542481D01*
X119562481Y-127661015D01*
X119423100Y-127754147D01*
X119268228Y-127818297D01*
X119103816Y-127851000D01*
X118936184Y-127851000D01*
X118771772Y-127818297D01*
X118616900Y-127754147D01*
X118477519Y-127661015D01*
X118358985Y-127542481D01*
X118265853Y-127403100D01*
X118201703Y-127248228D01*
X118169000Y-127083816D01*
X118169000Y-126916184D01*
X118201703Y-126751772D01*
X118265853Y-126596900D01*
X118358985Y-126457519D01*
X118477519Y-126338985D01*
X118616900Y-126245853D01*
X118771772Y-126181703D01*
X118936184Y-126149000D01*
X119103816Y-126149000D01*
X119268228Y-126181703D01*
G37*
G36*
X88788228Y-126181703D02*
G01*
X88943100Y-126245853D01*
X89082481Y-126338985D01*
X89201015Y-126457519D01*
X89294147Y-126596900D01*
X89358297Y-126751772D01*
X89391000Y-126916184D01*
X89391000Y-127083816D01*
X89358297Y-127248228D01*
X89294147Y-127403100D01*
X89201015Y-127542481D01*
X89082481Y-127661015D01*
X88943100Y-127754147D01*
X88788228Y-127818297D01*
X88623816Y-127851000D01*
X88456184Y-127851000D01*
X88291772Y-127818297D01*
X88136900Y-127754147D01*
X87997519Y-127661015D01*
X87878985Y-127542481D01*
X87785853Y-127403100D01*
X87721703Y-127248228D01*
X87689000Y-127083816D01*
X87689000Y-126916184D01*
X87721703Y-126751772D01*
X87785853Y-126596900D01*
X87878985Y-126457519D01*
X87997519Y-126338985D01*
X88136900Y-126245853D01*
X88291772Y-126181703D01*
X88456184Y-126149000D01*
X88623816Y-126149000D01*
X88788228Y-126181703D01*
G37*
G36*
X91328228Y-126181703D02*
G01*
X91483100Y-126245853D01*
X91622481Y-126338985D01*
X91741015Y-126457519D01*
X91834147Y-126596900D01*
X91898297Y-126751772D01*
X91931000Y-126916184D01*
X91931000Y-127083816D01*
X91898297Y-127248228D01*
X91834147Y-127403100D01*
X91741015Y-127542481D01*
X91622481Y-127661015D01*
X91483100Y-127754147D01*
X91328228Y-127818297D01*
X91163816Y-127851000D01*
X90996184Y-127851000D01*
X90831772Y-127818297D01*
X90676900Y-127754147D01*
X90537519Y-127661015D01*
X90418985Y-127542481D01*
X90325853Y-127403100D01*
X90261703Y-127248228D01*
X90229000Y-127083816D01*
X90229000Y-126916184D01*
X90261703Y-126751772D01*
X90325853Y-126596900D01*
X90418985Y-126457519D01*
X90537519Y-126338985D01*
X90676900Y-126245853D01*
X90831772Y-126181703D01*
X90996184Y-126149000D01*
X91163816Y-126149000D01*
X91328228Y-126181703D01*
G37*
G36*
X104028228Y-126181703D02*
G01*
X104183100Y-126245853D01*
X104322481Y-126338985D01*
X104441015Y-126457519D01*
X104534147Y-126596900D01*
X104598297Y-126751772D01*
X104631000Y-126916184D01*
X104631000Y-127083816D01*
X104598297Y-127248228D01*
X104534147Y-127403100D01*
X104441015Y-127542481D01*
X104322481Y-127661015D01*
X104183100Y-127754147D01*
X104028228Y-127818297D01*
X103863816Y-127851000D01*
X103696184Y-127851000D01*
X103531772Y-127818297D01*
X103376900Y-127754147D01*
X103237519Y-127661015D01*
X103118985Y-127542481D01*
X103025853Y-127403100D01*
X102961703Y-127248228D01*
X102929000Y-127083816D01*
X102929000Y-126916184D01*
X102961703Y-126751772D01*
X103025853Y-126596900D01*
X103118985Y-126457519D01*
X103237519Y-126338985D01*
X103376900Y-126245853D01*
X103531772Y-126181703D01*
X103696184Y-126149000D01*
X103863816Y-126149000D01*
X104028228Y-126181703D01*
G37*
G36*
X101488228Y-126181703D02*
G01*
X101643100Y-126245853D01*
X101782481Y-126338985D01*
X101901015Y-126457519D01*
X101994147Y-126596900D01*
X102058297Y-126751772D01*
X102091000Y-126916184D01*
X102091000Y-127083816D01*
X102058297Y-127248228D01*
X101994147Y-127403100D01*
X101901015Y-127542481D01*
X101782481Y-127661015D01*
X101643100Y-127754147D01*
X101488228Y-127818297D01*
X101323816Y-127851000D01*
X101156184Y-127851000D01*
X100991772Y-127818297D01*
X100836900Y-127754147D01*
X100697519Y-127661015D01*
X100578985Y-127542481D01*
X100485853Y-127403100D01*
X100421703Y-127248228D01*
X100389000Y-127083816D01*
X100389000Y-126916184D01*
X100421703Y-126751772D01*
X100485853Y-126596900D01*
X100578985Y-126457519D01*
X100697519Y-126338985D01*
X100836900Y-126245853D01*
X100991772Y-126181703D01*
X101156184Y-126149000D01*
X101323816Y-126149000D01*
X101488228Y-126181703D01*
G37*
G36*
X93868228Y-126181703D02*
G01*
X94023100Y-126245853D01*
X94162481Y-126338985D01*
X94281015Y-126457519D01*
X94374147Y-126596900D01*
X94438297Y-126751772D01*
X94471000Y-126916184D01*
X94471000Y-127083816D01*
X94438297Y-127248228D01*
X94374147Y-127403100D01*
X94281015Y-127542481D01*
X94162481Y-127661015D01*
X94023100Y-127754147D01*
X93868228Y-127818297D01*
X93703816Y-127851000D01*
X93536184Y-127851000D01*
X93371772Y-127818297D01*
X93216900Y-127754147D01*
X93077519Y-127661015D01*
X92958985Y-127542481D01*
X92865853Y-127403100D01*
X92801703Y-127248228D01*
X92769000Y-127083816D01*
X92769000Y-126916184D01*
X92801703Y-126751772D01*
X92865853Y-126596900D01*
X92958985Y-126457519D01*
X93077519Y-126338985D01*
X93216900Y-126245853D01*
X93371772Y-126181703D01*
X93536184Y-126149000D01*
X93703816Y-126149000D01*
X93868228Y-126181703D01*
G37*
G36*
X116728228Y-126181703D02*
G01*
X116883100Y-126245853D01*
X117022481Y-126338985D01*
X117141015Y-126457519D01*
X117234147Y-126596900D01*
X117298297Y-126751772D01*
X117331000Y-126916184D01*
X117331000Y-127083816D01*
X117298297Y-127248228D01*
X117234147Y-127403100D01*
X117141015Y-127542481D01*
X117022481Y-127661015D01*
X116883100Y-127754147D01*
X116728228Y-127818297D01*
X116563816Y-127851000D01*
X116396184Y-127851000D01*
X116231772Y-127818297D01*
X116076900Y-127754147D01*
X115937519Y-127661015D01*
X115818985Y-127542481D01*
X115725853Y-127403100D01*
X115661703Y-127248228D01*
X115629000Y-127083816D01*
X115629000Y-126916184D01*
X115661703Y-126751772D01*
X115725853Y-126596900D01*
X115818985Y-126457519D01*
X115937519Y-126338985D01*
X116076900Y-126245853D01*
X116231772Y-126181703D01*
X116396184Y-126149000D01*
X116563816Y-126149000D01*
X116728228Y-126181703D01*
G37*
G36*
X96408228Y-126181703D02*
G01*
X96563100Y-126245853D01*
X96702481Y-126338985D01*
X96821015Y-126457519D01*
X96914147Y-126596900D01*
X96978297Y-126751772D01*
X97011000Y-126916184D01*
X97011000Y-127083816D01*
X96978297Y-127248228D01*
X96914147Y-127403100D01*
X96821015Y-127542481D01*
X96702481Y-127661015D01*
X96563100Y-127754147D01*
X96408228Y-127818297D01*
X96243816Y-127851000D01*
X96076184Y-127851000D01*
X95911772Y-127818297D01*
X95756900Y-127754147D01*
X95617519Y-127661015D01*
X95498985Y-127542481D01*
X95405853Y-127403100D01*
X95341703Y-127248228D01*
X95309000Y-127083816D01*
X95309000Y-126916184D01*
X95341703Y-126751772D01*
X95405853Y-126596900D01*
X95498985Y-126457519D01*
X95617519Y-126338985D01*
X95756900Y-126245853D01*
X95911772Y-126181703D01*
X96076184Y-126149000D01*
X96243816Y-126149000D01*
X96408228Y-126181703D01*
G37*
G36*
X114188228Y-126181703D02*
G01*
X114343100Y-126245853D01*
X114482481Y-126338985D01*
X114601015Y-126457519D01*
X114694147Y-126596900D01*
X114758297Y-126751772D01*
X114791000Y-126916184D01*
X114791000Y-127083816D01*
X114758297Y-127248228D01*
X114694147Y-127403100D01*
X114601015Y-127542481D01*
X114482481Y-127661015D01*
X114343100Y-127754147D01*
X114188228Y-127818297D01*
X114023816Y-127851000D01*
X113856184Y-127851000D01*
X113691772Y-127818297D01*
X113536900Y-127754147D01*
X113397519Y-127661015D01*
X113278985Y-127542481D01*
X113185853Y-127403100D01*
X113121703Y-127248228D01*
X113089000Y-127083816D01*
X113089000Y-126916184D01*
X113121703Y-126751772D01*
X113185853Y-126596900D01*
X113278985Y-126457519D01*
X113397519Y-126338985D01*
X113536900Y-126245853D01*
X113691772Y-126181703D01*
X113856184Y-126149000D01*
X114023816Y-126149000D01*
X114188228Y-126181703D01*
G37*
G36*
X98948228Y-126181703D02*
G01*
X99103100Y-126245853D01*
X99242481Y-126338985D01*
X99361015Y-126457519D01*
X99454147Y-126596900D01*
X99518297Y-126751772D01*
X99551000Y-126916184D01*
X99551000Y-127083816D01*
X99518297Y-127248228D01*
X99454147Y-127403100D01*
X99361015Y-127542481D01*
X99242481Y-127661015D01*
X99103100Y-127754147D01*
X98948228Y-127818297D01*
X98783816Y-127851000D01*
X98616184Y-127851000D01*
X98451772Y-127818297D01*
X98296900Y-127754147D01*
X98157519Y-127661015D01*
X98038985Y-127542481D01*
X97945853Y-127403100D01*
X97881703Y-127248228D01*
X97849000Y-127083816D01*
X97849000Y-126916184D01*
X97881703Y-126751772D01*
X97945853Y-126596900D01*
X98038985Y-126457519D01*
X98157519Y-126338985D01*
X98296900Y-126245853D01*
X98451772Y-126181703D01*
X98616184Y-126149000D01*
X98783816Y-126149000D01*
X98948228Y-126181703D01*
G37*
G36*
X111648228Y-126181703D02*
G01*
X111803100Y-126245853D01*
X111942481Y-126338985D01*
X112061015Y-126457519D01*
X112154147Y-126596900D01*
X112218297Y-126751772D01*
X112251000Y-126916184D01*
X112251000Y-127083816D01*
X112218297Y-127248228D01*
X112154147Y-127403100D01*
X112061015Y-127542481D01*
X111942481Y-127661015D01*
X111803100Y-127754147D01*
X111648228Y-127818297D01*
X111483816Y-127851000D01*
X111316184Y-127851000D01*
X111151772Y-127818297D01*
X110996900Y-127754147D01*
X110857519Y-127661015D01*
X110738985Y-127542481D01*
X110645853Y-127403100D01*
X110581703Y-127248228D01*
X110549000Y-127083816D01*
X110549000Y-126916184D01*
X110581703Y-126751772D01*
X110645853Y-126596900D01*
X110738985Y-126457519D01*
X110857519Y-126338985D01*
X110996900Y-126245853D01*
X111151772Y-126181703D01*
X111316184Y-126149000D01*
X111483816Y-126149000D01*
X111648228Y-126181703D01*
G37*
G36*
X114188228Y-110941703D02*
G01*
X114343100Y-111005853D01*
X114482481Y-111098985D01*
X114601015Y-111217519D01*
X114694147Y-111356900D01*
X114758297Y-111511772D01*
X114791000Y-111676184D01*
X114791000Y-111843816D01*
X114758297Y-112008228D01*
X114694147Y-112163100D01*
X114601015Y-112302481D01*
X114482481Y-112421015D01*
X114343100Y-112514147D01*
X114188228Y-112578297D01*
X114023816Y-112611000D01*
X113856184Y-112611000D01*
X113691772Y-112578297D01*
X113536900Y-112514147D01*
X113397519Y-112421015D01*
X113278985Y-112302481D01*
X113185853Y-112163100D01*
X113121703Y-112008228D01*
X113089000Y-111843816D01*
X113089000Y-111676184D01*
X113121703Y-111511772D01*
X113185853Y-111356900D01*
X113278985Y-111217519D01*
X113397519Y-111098985D01*
X113536900Y-111005853D01*
X113691772Y-110941703D01*
X113856184Y-110909000D01*
X114023816Y-110909000D01*
X114188228Y-110941703D01*
G37*
G36*
X98948228Y-110941703D02*
G01*
X99103100Y-111005853D01*
X99242481Y-111098985D01*
X99361015Y-111217519D01*
X99454147Y-111356900D01*
X99518297Y-111511772D01*
X99551000Y-111676184D01*
X99551000Y-111843816D01*
X99518297Y-112008228D01*
X99454147Y-112163100D01*
X99361015Y-112302481D01*
X99242481Y-112421015D01*
X99103100Y-112514147D01*
X98948228Y-112578297D01*
X98783816Y-112611000D01*
X98616184Y-112611000D01*
X98451772Y-112578297D01*
X98296900Y-112514147D01*
X98157519Y-112421015D01*
X98038985Y-112302481D01*
X97945853Y-112163100D01*
X97881703Y-112008228D01*
X97849000Y-111843816D01*
X97849000Y-111676184D01*
X97881703Y-111511772D01*
X97945853Y-111356900D01*
X98038985Y-111217519D01*
X98157519Y-111098985D01*
X98296900Y-111005853D01*
X98451772Y-110941703D01*
X98616184Y-110909000D01*
X98783816Y-110909000D01*
X98948228Y-110941703D01*
G37*
G36*
X104028228Y-110941703D02*
G01*
X104183100Y-111005853D01*
X104322481Y-111098985D01*
X104441015Y-111217519D01*
X104534147Y-111356900D01*
X104598297Y-111511772D01*
X104631000Y-111676184D01*
X104631000Y-111843816D01*
X104598297Y-112008228D01*
X104534147Y-112163100D01*
X104441015Y-112302481D01*
X104322481Y-112421015D01*
X104183100Y-112514147D01*
X104028228Y-112578297D01*
X103863816Y-112611000D01*
X103696184Y-112611000D01*
X103531772Y-112578297D01*
X103376900Y-112514147D01*
X103237519Y-112421015D01*
X103118985Y-112302481D01*
X103025853Y-112163100D01*
X102961703Y-112008228D01*
X102929000Y-111843816D01*
X102929000Y-111676184D01*
X102961703Y-111511772D01*
X103025853Y-111356900D01*
X103118985Y-111217519D01*
X103237519Y-111098985D01*
X103376900Y-111005853D01*
X103531772Y-110941703D01*
X103696184Y-110909000D01*
X103863816Y-110909000D01*
X104028228Y-110941703D01*
G37*
G36*
X106568228Y-110941703D02*
G01*
X106723100Y-111005853D01*
X106862481Y-111098985D01*
X106981015Y-111217519D01*
X107074147Y-111356900D01*
X107138297Y-111511772D01*
X107171000Y-111676184D01*
X107171000Y-111843816D01*
X107138297Y-112008228D01*
X107074147Y-112163100D01*
X106981015Y-112302481D01*
X106862481Y-112421015D01*
X106723100Y-112514147D01*
X106568228Y-112578297D01*
X106403816Y-112611000D01*
X106236184Y-112611000D01*
X106071772Y-112578297D01*
X105916900Y-112514147D01*
X105777519Y-112421015D01*
X105658985Y-112302481D01*
X105565853Y-112163100D01*
X105501703Y-112008228D01*
X105469000Y-111843816D01*
X105469000Y-111676184D01*
X105501703Y-111511772D01*
X105565853Y-111356900D01*
X105658985Y-111217519D01*
X105777519Y-111098985D01*
X105916900Y-111005853D01*
X106071772Y-110941703D01*
X106236184Y-110909000D01*
X106403816Y-110909000D01*
X106568228Y-110941703D01*
G37*
G36*
X109108228Y-110941703D02*
G01*
X109263100Y-111005853D01*
X109402481Y-111098985D01*
X109521015Y-111217519D01*
X109614147Y-111356900D01*
X109678297Y-111511772D01*
X109711000Y-111676184D01*
X109711000Y-111843816D01*
X109678297Y-112008228D01*
X109614147Y-112163100D01*
X109521015Y-112302481D01*
X109402481Y-112421015D01*
X109263100Y-112514147D01*
X109108228Y-112578297D01*
X108943816Y-112611000D01*
X108776184Y-112611000D01*
X108611772Y-112578297D01*
X108456900Y-112514147D01*
X108317519Y-112421015D01*
X108198985Y-112302481D01*
X108105853Y-112163100D01*
X108041703Y-112008228D01*
X108009000Y-111843816D01*
X108009000Y-111676184D01*
X108041703Y-111511772D01*
X108105853Y-111356900D01*
X108198985Y-111217519D01*
X108317519Y-111098985D01*
X108456900Y-111005853D01*
X108611772Y-110941703D01*
X108776184Y-110909000D01*
X108943816Y-110909000D01*
X109108228Y-110941703D01*
G37*
G36*
X111648228Y-110941703D02*
G01*
X111803100Y-111005853D01*
X111942481Y-111098985D01*
X112061015Y-111217519D01*
X112154147Y-111356900D01*
X112218297Y-111511772D01*
X112251000Y-111676184D01*
X112251000Y-111843816D01*
X112218297Y-112008228D01*
X112154147Y-112163100D01*
X112061015Y-112302481D01*
X111942481Y-112421015D01*
X111803100Y-112514147D01*
X111648228Y-112578297D01*
X111483816Y-112611000D01*
X111316184Y-112611000D01*
X111151772Y-112578297D01*
X110996900Y-112514147D01*
X110857519Y-112421015D01*
X110738985Y-112302481D01*
X110645853Y-112163100D01*
X110581703Y-112008228D01*
X110549000Y-111843816D01*
X110549000Y-111676184D01*
X110581703Y-111511772D01*
X110645853Y-111356900D01*
X110738985Y-111217519D01*
X110857519Y-111098985D01*
X110996900Y-111005853D01*
X111151772Y-110941703D01*
X111316184Y-110909000D01*
X111483816Y-110909000D01*
X111648228Y-110941703D01*
G37*
G36*
X119268228Y-110941703D02*
G01*
X119423100Y-111005853D01*
X119562481Y-111098985D01*
X119681015Y-111217519D01*
X119774147Y-111356900D01*
X119838297Y-111511772D01*
X119871000Y-111676184D01*
X119871000Y-111843816D01*
X119838297Y-112008228D01*
X119774147Y-112163100D01*
X119681015Y-112302481D01*
X119562481Y-112421015D01*
X119423100Y-112514147D01*
X119268228Y-112578297D01*
X119103816Y-112611000D01*
X118936184Y-112611000D01*
X118771772Y-112578297D01*
X118616900Y-112514147D01*
X118477519Y-112421015D01*
X118358985Y-112302481D01*
X118265853Y-112163100D01*
X118201703Y-112008228D01*
X118169000Y-111843816D01*
X118169000Y-111676184D01*
X118201703Y-111511772D01*
X118265853Y-111356900D01*
X118358985Y-111217519D01*
X118477519Y-111098985D01*
X118616900Y-111005853D01*
X118771772Y-110941703D01*
X118936184Y-110909000D01*
X119103816Y-110909000D01*
X119268228Y-110941703D01*
G37*
G36*
X96408228Y-110941703D02*
G01*
X96563100Y-111005853D01*
X96702481Y-111098985D01*
X96821015Y-111217519D01*
X96914147Y-111356900D01*
X96978297Y-111511772D01*
X97011000Y-111676184D01*
X97011000Y-111843816D01*
X96978297Y-112008228D01*
X96914147Y-112163100D01*
X96821015Y-112302481D01*
X96702481Y-112421015D01*
X96563100Y-112514147D01*
X96408228Y-112578297D01*
X96243816Y-112611000D01*
X96076184Y-112611000D01*
X95911772Y-112578297D01*
X95756900Y-112514147D01*
X95617519Y-112421015D01*
X95498985Y-112302481D01*
X95405853Y-112163100D01*
X95341703Y-112008228D01*
X95309000Y-111843816D01*
X95309000Y-111676184D01*
X95341703Y-111511772D01*
X95405853Y-111356900D01*
X95498985Y-111217519D01*
X95617519Y-111098985D01*
X95756900Y-111005853D01*
X95911772Y-110941703D01*
X96076184Y-110909000D01*
X96243816Y-110909000D01*
X96408228Y-110941703D01*
G37*
G36*
X93868228Y-110941703D02*
G01*
X94023100Y-111005853D01*
X94162481Y-111098985D01*
X94281015Y-111217519D01*
X94374147Y-111356900D01*
X94438297Y-111511772D01*
X94471000Y-111676184D01*
X94471000Y-111843816D01*
X94438297Y-112008228D01*
X94374147Y-112163100D01*
X94281015Y-112302481D01*
X94162481Y-112421015D01*
X94023100Y-112514147D01*
X93868228Y-112578297D01*
X93703816Y-112611000D01*
X93536184Y-112611000D01*
X93371772Y-112578297D01*
X93216900Y-112514147D01*
X93077519Y-112421015D01*
X92958985Y-112302481D01*
X92865853Y-112163100D01*
X92801703Y-112008228D01*
X92769000Y-111843816D01*
X92769000Y-111676184D01*
X92801703Y-111511772D01*
X92865853Y-111356900D01*
X92958985Y-111217519D01*
X93077519Y-111098985D01*
X93216900Y-111005853D01*
X93371772Y-110941703D01*
X93536184Y-110909000D01*
X93703816Y-110909000D01*
X93868228Y-110941703D01*
G37*
G36*
X116728228Y-110941703D02*
G01*
X116883100Y-111005853D01*
X117022481Y-111098985D01*
X117141015Y-111217519D01*
X117234147Y-111356900D01*
X117298297Y-111511772D01*
X117331000Y-111676184D01*
X117331000Y-111843816D01*
X117298297Y-112008228D01*
X117234147Y-112163100D01*
X117141015Y-112302481D01*
X117022481Y-112421015D01*
X116883100Y-112514147D01*
X116728228Y-112578297D01*
X116563816Y-112611000D01*
X116396184Y-112611000D01*
X116231772Y-112578297D01*
X116076900Y-112514147D01*
X115937519Y-112421015D01*
X115818985Y-112302481D01*
X115725853Y-112163100D01*
X115661703Y-112008228D01*
X115629000Y-111843816D01*
X115629000Y-111676184D01*
X115661703Y-111511772D01*
X115725853Y-111356900D01*
X115818985Y-111217519D01*
X115937519Y-111098985D01*
X116076900Y-111005853D01*
X116231772Y-110941703D01*
X116396184Y-110909000D01*
X116563816Y-110909000D01*
X116728228Y-110941703D01*
G37*
G36*
X88788228Y-110941703D02*
G01*
X88943100Y-111005853D01*
X89082481Y-111098985D01*
X89201015Y-111217519D01*
X89294147Y-111356900D01*
X89358297Y-111511772D01*
X89391000Y-111676184D01*
X89391000Y-111843816D01*
X89358297Y-112008228D01*
X89294147Y-112163100D01*
X89201015Y-112302481D01*
X89082481Y-112421015D01*
X88943100Y-112514147D01*
X88788228Y-112578297D01*
X88623816Y-112611000D01*
X88456184Y-112611000D01*
X88291772Y-112578297D01*
X88136900Y-112514147D01*
X87997519Y-112421015D01*
X87878985Y-112302481D01*
X87785853Y-112163100D01*
X87721703Y-112008228D01*
X87689000Y-111843816D01*
X87689000Y-111676184D01*
X87721703Y-111511772D01*
X87785853Y-111356900D01*
X87878985Y-111217519D01*
X87997519Y-111098985D01*
X88136900Y-111005853D01*
X88291772Y-110941703D01*
X88456184Y-110909000D01*
X88623816Y-110909000D01*
X88788228Y-110941703D01*
G37*
G36*
X91328228Y-110941703D02*
G01*
X91483100Y-111005853D01*
X91622481Y-111098985D01*
X91741015Y-111217519D01*
X91834147Y-111356900D01*
X91898297Y-111511772D01*
X91931000Y-111676184D01*
X91931000Y-111843816D01*
X91898297Y-112008228D01*
X91834147Y-112163100D01*
X91741015Y-112302481D01*
X91622481Y-112421015D01*
X91483100Y-112514147D01*
X91328228Y-112578297D01*
X91163816Y-112611000D01*
X90996184Y-112611000D01*
X90831772Y-112578297D01*
X90676900Y-112514147D01*
X90537519Y-112421015D01*
X90418985Y-112302481D01*
X90325853Y-112163100D01*
X90261703Y-112008228D01*
X90229000Y-111843816D01*
X90229000Y-111676184D01*
X90261703Y-111511772D01*
X90325853Y-111356900D01*
X90418985Y-111217519D01*
X90537519Y-111098985D01*
X90676900Y-111005853D01*
X90831772Y-110941703D01*
X90996184Y-110909000D01*
X91163816Y-110909000D01*
X91328228Y-110941703D01*
G37*
G36*
X121808228Y-110941703D02*
G01*
X121963100Y-111005853D01*
X122102481Y-111098985D01*
X122221015Y-111217519D01*
X122314147Y-111356900D01*
X122378297Y-111511772D01*
X122411000Y-111676184D01*
X122411000Y-111843816D01*
X122378297Y-112008228D01*
X122314147Y-112163100D01*
X122221015Y-112302481D01*
X122102481Y-112421015D01*
X121963100Y-112514147D01*
X121808228Y-112578297D01*
X121643816Y-112611000D01*
X121476184Y-112611000D01*
X121311772Y-112578297D01*
X121156900Y-112514147D01*
X121017519Y-112421015D01*
X120898985Y-112302481D01*
X120805853Y-112163100D01*
X120741703Y-112008228D01*
X120709000Y-111843816D01*
X120709000Y-111676184D01*
X120741703Y-111511772D01*
X120805853Y-111356900D01*
X120898985Y-111217519D01*
X121017519Y-111098985D01*
X121156900Y-111005853D01*
X121311772Y-110941703D01*
X121476184Y-110909000D01*
X121643816Y-110909000D01*
X121808228Y-110941703D01*
G37*
G36*
X86248228Y-110941703D02*
G01*
X86403100Y-111005853D01*
X86542481Y-111098985D01*
X86661015Y-111217519D01*
X86754147Y-111356900D01*
X86818297Y-111511772D01*
X86851000Y-111676184D01*
X86851000Y-111843816D01*
X86818297Y-112008228D01*
X86754147Y-112163100D01*
X86661015Y-112302481D01*
X86542481Y-112421015D01*
X86403100Y-112514147D01*
X86248228Y-112578297D01*
X86083816Y-112611000D01*
X85916184Y-112611000D01*
X85751772Y-112578297D01*
X85596900Y-112514147D01*
X85457519Y-112421015D01*
X85338985Y-112302481D01*
X85245853Y-112163100D01*
X85181703Y-112008228D01*
X85149000Y-111843816D01*
X85149000Y-111676184D01*
X85181703Y-111511772D01*
X85245853Y-111356900D01*
X85338985Y-111217519D01*
X85457519Y-111098985D01*
X85596900Y-111005853D01*
X85751772Y-110941703D01*
X85916184Y-110909000D01*
X86083816Y-110909000D01*
X86248228Y-110941703D01*
G37*
G36*
X101488228Y-110941703D02*
G01*
X101643100Y-111005853D01*
X101782481Y-111098985D01*
X101901015Y-111217519D01*
X101994147Y-111356900D01*
X102058297Y-111511772D01*
X102091000Y-111676184D01*
X102091000Y-111843816D01*
X102058297Y-112008228D01*
X101994147Y-112163100D01*
X101901015Y-112302481D01*
X101782481Y-112421015D01*
X101643100Y-112514147D01*
X101488228Y-112578297D01*
X101323816Y-112611000D01*
X101156184Y-112611000D01*
X100991772Y-112578297D01*
X100836900Y-112514147D01*
X100697519Y-112421015D01*
X100578985Y-112302481D01*
X100485853Y-112163100D01*
X100421703Y-112008228D01*
X100389000Y-111843816D01*
X100389000Y-111676184D01*
X100421703Y-111511772D01*
X100485853Y-111356900D01*
X100578985Y-111217519D01*
X100697519Y-111098985D01*
X100836900Y-111005853D01*
X100991772Y-110941703D01*
X101156184Y-110909000D01*
X101323816Y-110909000D01*
X101488228Y-110941703D01*
G37*
G36*
X96651000Y-105151000D02*
G01*
X93349000Y-105151000D01*
X93349000Y-101849000D01*
X96651000Y-101849000D01*
X96651000Y-105151000D01*
G37*
G36*
X87302585Y-94058802D02*
G01*
X87452410Y-94088604D01*
X87734674Y-94205521D01*
X87988705Y-94375259D01*
X88204741Y-94591295D01*
X88374479Y-94845326D01*
X88491396Y-95127590D01*
X88551000Y-95427240D01*
X88551000Y-95732760D01*
X88491396Y-96032410D01*
X88374479Y-96314674D01*
X88204741Y-96568705D01*
X87988705Y-96784741D01*
X87734674Y-96954479D01*
X87452410Y-97071396D01*
X87302585Y-97101198D01*
X87152761Y-97131000D01*
X86847239Y-97131000D01*
X86697415Y-97101198D01*
X86547590Y-97071396D01*
X86265326Y-96954479D01*
X86011295Y-96784741D01*
X85795259Y-96568705D01*
X85625521Y-96314674D01*
X85508604Y-96032410D01*
X85449000Y-95732760D01*
X85449000Y-95427240D01*
X85508604Y-95127590D01*
X85625521Y-94845326D01*
X85795259Y-94591295D01*
X86011295Y-94375259D01*
X86265326Y-94205521D01*
X86547590Y-94088604D01*
X86697415Y-94058802D01*
X86847239Y-94029000D01*
X87152761Y-94029000D01*
X87302585Y-94058802D01*
G37*
G36*
X95375256Y-89191298D02*
G01*
X95481579Y-89212447D01*
X95782042Y-89336903D01*
X96052451Y-89517585D01*
X96282415Y-89747549D01*
X96463097Y-90017958D01*
X96587553Y-90318421D01*
X96651000Y-90637391D01*
X96651000Y-90962609D01*
X96587553Y-91281579D01*
X96463097Y-91582042D01*
X96282415Y-91852451D01*
X96052451Y-92082415D01*
X95782042Y-92263097D01*
X95481579Y-92387553D01*
X95375256Y-92408702D01*
X95162611Y-92451000D01*
X94837389Y-92451000D01*
X94624744Y-92408702D01*
X94518421Y-92387553D01*
X94217958Y-92263097D01*
X93947549Y-92082415D01*
X93717585Y-91852451D01*
X93536903Y-91582042D01*
X93412447Y-91281579D01*
X93349000Y-90962609D01*
X93349000Y-90637391D01*
X93412447Y-90318421D01*
X93536903Y-90017958D01*
X93717585Y-89747549D01*
X93947549Y-89517585D01*
X94217958Y-89336903D01*
X94518421Y-89212447D01*
X94624744Y-89191298D01*
X94837389Y-89149000D01*
X95162611Y-89149000D01*
X95375256Y-89191298D01*
G37*
G36*
X88551000Y-92051000D02*
G01*
X85449000Y-92051000D01*
X85449000Y-88949000D01*
X88551000Y-88949000D01*
X88551000Y-92051000D01*
G37*
G36*
X94802585Y-78138802D02*
G01*
X94952410Y-78168604D01*
X95234674Y-78285521D01*
X95488705Y-78455259D01*
X95704741Y-78671295D01*
X95874479Y-78925326D01*
X95991396Y-79207590D01*
X96051000Y-79507240D01*
X96051000Y-79812760D01*
X95991396Y-80112410D01*
X95874479Y-80394674D01*
X95704741Y-80648705D01*
X95488705Y-80864741D01*
X95234674Y-81034479D01*
X94952410Y-81151396D01*
X94802585Y-81181198D01*
X94652761Y-81211000D01*
X94347239Y-81211000D01*
X94197415Y-81181198D01*
X94047590Y-81151396D01*
X93765326Y-81034479D01*
X93511295Y-80864741D01*
X93295259Y-80648705D01*
X93125521Y-80394674D01*
X93008604Y-80112410D01*
X92949000Y-79812760D01*
X92949000Y-79507240D01*
X93008604Y-79207590D01*
X93125521Y-78925326D01*
X93295259Y-78671295D01*
X93511295Y-78455259D01*
X93765326Y-78285521D01*
X94047590Y-78168604D01*
X94197415Y-78138802D01*
X94347239Y-78109000D01*
X94652761Y-78109000D01*
X94802585Y-78138802D01*
G37*
G36*
X94802585Y-73058802D02*
G01*
X94952410Y-73088604D01*
X95234674Y-73205521D01*
X95488705Y-73375259D01*
X95704741Y-73591295D01*
X95874479Y-73845326D01*
X95991396Y-74127590D01*
X96051000Y-74427240D01*
X96051000Y-74732760D01*
X95991396Y-75032410D01*
X95874479Y-75314674D01*
X95704741Y-75568705D01*
X95488705Y-75784741D01*
X95234674Y-75954479D01*
X94952410Y-76071396D01*
X94802585Y-76101198D01*
X94652761Y-76131000D01*
X94347239Y-76131000D01*
X94197415Y-76101198D01*
X94047590Y-76071396D01*
X93765326Y-75954479D01*
X93511295Y-75784741D01*
X93295259Y-75568705D01*
X93125521Y-75314674D01*
X93008604Y-75032410D01*
X92949000Y-74732760D01*
X92949000Y-74427240D01*
X93008604Y-74127590D01*
X93125521Y-73845326D01*
X93295259Y-73591295D01*
X93511295Y-73375259D01*
X93765326Y-73205521D01*
X94047590Y-73088604D01*
X94197415Y-73058802D01*
X94347239Y-73029000D01*
X94652761Y-73029000D01*
X94802585Y-73058802D01*
G37*
G36*
X96051000Y-71051000D02*
G01*
X92949000Y-71051000D01*
X92949000Y-67949000D01*
X96051000Y-67949000D01*
X96051000Y-71051000D01*
G37*
G36*
X107401000Y-61401000D02*
G01*
X105599000Y-61401000D01*
X105599000Y-59599000D01*
X107401000Y-59599000D01*
X107401000Y-61401000D01*
G37*
G36*
X104073512Y-59603927D02*
G01*
X104222812Y-59633624D01*
X104386784Y-59701544D01*
X104534354Y-59800147D01*
X104659853Y-59925646D01*
X104758456Y-60073216D01*
X104826376Y-60237188D01*
X104861000Y-60411259D01*
X104861000Y-60588741D01*
X104826376Y-60762812D01*
X104758456Y-60926784D01*
X104659853Y-61074354D01*
X104534354Y-61199853D01*
X104386784Y-61298456D01*
X104222812Y-61366376D01*
X104073512Y-61396073D01*
X104048742Y-61401000D01*
X103871258Y-61401000D01*
X103846488Y-61396073D01*
X103697188Y-61366376D01*
X103533216Y-61298456D01*
X103385646Y-61199853D01*
X103260147Y-61074354D01*
X103161544Y-60926784D01*
X103093624Y-60762812D01*
X103059000Y-60588741D01*
X103059000Y-60411259D01*
X103093624Y-60237188D01*
X103161544Y-60073216D01*
X103260147Y-59925646D01*
X103385646Y-59800147D01*
X103533216Y-59701544D01*
X103697188Y-59633624D01*
X103846488Y-59603927D01*
X103871258Y-59599000D01*
X104048742Y-59599000D01*
X104073512Y-59603927D01*
G37*
G36*
X101533512Y-59603927D02*
G01*
X101682812Y-59633624D01*
X101846784Y-59701544D01*
X101994354Y-59800147D01*
X102119853Y-59925646D01*
X102218456Y-60073216D01*
X102286376Y-60237188D01*
X102321000Y-60411259D01*
X102321000Y-60588741D01*
X102286376Y-60762812D01*
X102218456Y-60926784D01*
X102119853Y-61074354D01*
X101994354Y-61199853D01*
X101846784Y-61298456D01*
X101682812Y-61366376D01*
X101533512Y-61396073D01*
X101508742Y-61401000D01*
X101331258Y-61401000D01*
X101306488Y-61396073D01*
X101157188Y-61366376D01*
X100993216Y-61298456D01*
X100845646Y-61199853D01*
X100720147Y-61074354D01*
X100621544Y-60926784D01*
X100553624Y-60762812D01*
X100519000Y-60588741D01*
X100519000Y-60411259D01*
X100553624Y-60237188D01*
X100621544Y-60073216D01*
X100720147Y-59925646D01*
X100845646Y-59800147D01*
X100993216Y-59701544D01*
X101157188Y-59633624D01*
X101306488Y-59603927D01*
X101331258Y-59599000D01*
X101508742Y-59599000D01*
X101533512Y-59603927D01*
G37*
G36*
X98993512Y-59603927D02*
G01*
X99142812Y-59633624D01*
X99306784Y-59701544D01*
X99454354Y-59800147D01*
X99579853Y-59925646D01*
X99678456Y-60073216D01*
X99746376Y-60237188D01*
X99781000Y-60411259D01*
X99781000Y-60588741D01*
X99746376Y-60762812D01*
X99678456Y-60926784D01*
X99579853Y-61074354D01*
X99454354Y-61199853D01*
X99306784Y-61298456D01*
X99142812Y-61366376D01*
X98993512Y-61396073D01*
X98968742Y-61401000D01*
X98791258Y-61401000D01*
X98766488Y-61396073D01*
X98617188Y-61366376D01*
X98453216Y-61298456D01*
X98305646Y-61199853D01*
X98180147Y-61074354D01*
X98081544Y-60926784D01*
X98013624Y-60762812D01*
X97979000Y-60588741D01*
X97979000Y-60411259D01*
X98013624Y-60237188D01*
X98081544Y-60073216D01*
X98180147Y-59925646D01*
X98305646Y-59800147D01*
X98453216Y-59701544D01*
X98617188Y-59633624D01*
X98766488Y-59603927D01*
X98791258Y-59599000D01*
X98968742Y-59599000D01*
X98993512Y-59603927D01*
G37*
M02*
